<?xml version="1.0" encoding="UTF-8" standalone="no"?>
<!-- Created with Inkscape (http://www.inkscape.org/) -->

<svg
   width="120"
   height="220"
   viewBox="0 0 120 220"
   version="1.1"
   id="svg1"
   sodipodi:docname="b.svg"
   inkscape:version="1.4.2 (f4327f4, 2025-05-13)"
   xmlns:inkscape="http://www.inkscape.org/namespaces/inkscape"
   xmlns:sodipodi="http://sodipodi.sourceforge.net/DTD/sodipodi-0.dtd"
   xmlns="http://www.w3.org/2000/svg"
   xmlns:svg="http://www.w3.org/2000/svg">
  <sodipodi:namedview
     id="namedview1"
     pagecolor="#ffffff"
     bordercolor="#000000"
     borderopacity="0.25"
     inkscape:showpageshadow="2"
     inkscape:pageopacity="0.0"
     inkscape:pagecheckerboard="0"
     inkscape:deskcolor="#d1d1d1"
     inkscape:zoom="2.6863636"
     inkscape:cx="60.118443"
     inkscape:cy="110"
     inkscape:window-width="1920"
     inkscape:window-height="1009"
     inkscape:window-x="-8"
     inkscape:window-y="-6"
     inkscape:window-maximized="1"
     inkscape:current-layer="svg1" />
  <defs
     id="defs1" />
  <g
     id="g22"
     style="display:inline">
    <path
       id="path244"
       style="baseline-shift:baseline;display:inline;overflow:visible;opacity:1;vector-effect:none;paint-order:stroke markers fill;enable-background:accumulate;stop-color:#000000;stop-opacity:1"
       d="m 40,15 -5,5 V 125 H 10 l -5,5 5,5 h 25 v 20 H 10 l -5,5 5,5 h 25 v 35 l 5,5 5,-5 v -35 h 10 v 35 l 5,5 5,-5 v -35 h 10 v 35 l 5,5 5,-5 v -35 h 25 l 5,-5 -5,-5 H 85 v -20 h 25 l 5,-5 -5,-5 H 85 V 20 l -5,-5 -5,5 V 125 H 65 V 20 l -5,-5 -5,5 V 125 H 45 V 20 Z m 5,120 h 10 v 20 H 45 Z m 20,0 h 10 v 20 H 65 Z" />
  </g>
</svg>
