<?xml version="1.0" encoding="UTF-8" standalone="no"?>
<!-- Created with Inkscape (http://www.inkscape.org/) -->

<svg
   width="120"
   height="220"
   viewBox="0 0 120 220"
   version="1.1"
   id="svg1"
   sodipodi:docname="Daeva antiguo.svg"
   inkscape:export-filename="Tipografias\Daevita\space.svg"
   inkscape:export-xdpi="96"
   inkscape:export-ydpi="96"
   inkscape:version="1.4.2 (f4327f4, 2025-05-13)"
   xmlns:inkscape="http://www.inkscape.org/namespaces/inkscape"
   xmlns:sodipodi="http://sodipodi.sourceforge.net/DTD/sodipodi-0.dtd"
   xmlns="http://www.w3.org/2000/svg"
   xmlns:svg="http://www.w3.org/2000/svg">
  <sodipodi:namedview
     id="namedview1"
     pagecolor="#ffffff"
     bordercolor="#000000"
     borderopacity="0.25"
     inkscape:showpageshadow="2"
     inkscape:pageopacity="0.0"
     inkscape:pagecheckerboard="0"
     inkscape:deskcolor="#d1d1d1"
     inkscape:document-units="px"
     showgrid="true"
     inkscape:lockguides="true"
     inkscape:zoom="2.8756734"
     inkscape:cx="16.170126"
     inkscape:cy="128.49164"
     inkscape:window-width="1536"
     inkscape:window-height="793"
     inkscape:window-x="1912"
     inkscape:window-y="-8"
     inkscape:window-maximized="1"
     inkscape:current-layer="layer1">
    <inkscape:grid
       id="grid1"
       units="px"
       originx="60"
       originy="110"
       spacingx="1"
       spacingy="1"
       empcolor="#0099e5"
       empopacity="0.30196078"
       color="#0099e5"
       opacity="0.14901961"
       empspacing="10"
       enabled="true"
       visible="true"
       dotted="false"
       snapvisiblegridlinesonly="true" />
    <sodipodi:guide
       position="0,220"
       orientation="0,120"
       inkscape:locked="true"
       id="guide8" />
    <sodipodi:guide
       position="120,220"
       orientation="220,0"
       inkscape:locked="true"
       id="guide9" />
    <sodipodi:guide
       position="120,0"
       orientation="0,-120"
       inkscape:locked="true"
       id="guide10" />
    <sodipodi:guide
       position="0,0"
       orientation="-220,0"
       inkscape:locked="true"
       id="guide11" />
  </sodipodi:namedview>
  <defs
     id="defs1">
    <marker
       markerWidth="0.52499998"
       markerHeight="0.99999995"
       refX="0"
       refY="0"
       orient="auto-start-reverse"
       id="marker2"
       viewBox="0 0 0.525 1"
       inkscape:stockid="Triangle cap"
       style="overflow:visible"
       preserveAspectRatio="xMidYMid"
       inkscape:isstock="true"
       inkscape:collect="always">
      <path
         style="fill:context-stroke;stroke-linecap:butt"
         d="M 0,-1 1,0 0,1 -0.05,0 Z"
         sodipodi:nodetypes="sssssscsss"
         transform="scale(0.5)"
         id="path2" />
    </marker>
    <marker
       markerWidth="0.52499998"
       markerHeight="0.99999995"
       refX="0"
       refY="0"
       orient="auto-start-reverse"
       id="CapTriangle"
       viewBox="0 0 0.525 1"
       inkscape:stockid="Triangle cap"
       style="overflow:visible"
       preserveAspectRatio="xMidYMid"
       inkscape:isstock="true"
       inkscape:collect="always">
      <path
         style="fill:context-stroke;stroke-linecap:butt"
         d="M 0,-1 1,0 0,1 -0.05,0 Z"
         sodipodi:nodetypes="sssssscsss"
         transform="scale(0.5)"
         id="path61" />
    </marker>
  </defs>
  <g
     inkscape:groupmode="layer"
     id="layer2"
     inkscape:label="Capa 2"
     style="display:none"
     sodipodi:insensitive="true">
    <path
       id="path88"
       style="baseline-shift:baseline;display:inline;overflow:visible;opacity:1;vector-effect:none;paint-order:stroke markers fill;enable-background:accumulate;stop-color:#000000;stop-opacity:1"
       d="M 98.787109,15.148438 95.148438,21.212891 104.8457,60 95.148438,98.787109 98.787109,104.85156 104.85156,101.21289 115.1543,60 104.85156,18.787109 Z" />
  </g>
  <g
     inkscape:groupmode="layer"
     id="layer3"
     inkscape:label="Capa 3"
     style="display:none"
     sodipodi:insensitive="true">
    <path
       id="path274"
       style="baseline-shift:baseline;display:inline;overflow:visible;opacity:1;vector-effect:none;paint-order:stroke markers fill;enable-background:accumulate;stop-color:#000000;stop-opacity:1"
       d="M 98.787109,15.148438 95.148438,21.212891 104.8457,60 95.148438,98.787109 98.787109,104.85156 104.85156,101.21289 115.1543,60 104.85156,18.787109 Z m 0,100.000002 -3.638671,6.06445 L 104.8457,160 l -9.697262,38.78711 3.638671,6.06445 6.064451,-3.63867 L 115.1543,160 104.85156,118.78711 Z" />
  </g>
  <g
     inkscape:groupmode="layer"
     id="layer6"
     inkscape:label="Capa 6"
     style="display:none"
     sodipodi:insensitive="true">
    <path
       id="path271"
       style="baseline-shift:baseline;display:inline;overflow:visible;opacity:1;vector-effect:none;paint-order:stroke markers fill;enable-background:accumulate;stop-color:#000000;stop-opacity:1"
       d="M 99.447266,15.03125 95.03125,20.552734 104.96875,110 l -9.9375,89.44727 4.416016,5.52148 5.521484,-4.41602 L 115.03125,110 104.96875,19.447266 Z" />
  </g>
  <g
     inkscape:groupmode="layer"
     id="layer4"
     inkscape:label="Capa 4"
     style="display:none"
     sodipodi:insensitive="true">
    <path
       id="path265"
       style="baseline-shift:baseline;display:inline;overflow:visible;opacity:1;vector-effect:none;paint-order:stroke markers fill;enable-background:accumulate;stop-color:#000000;stop-opacity:1"
       d="M 8.7871094,15.148438 5.1484375,21.212891 14.845703,60 5.1484375,98.787109 8.7871094,104.85156 14.851562,101.21289 25.154297,60 14.851562,18.787109 Z m 0,100.000002 -3.6386719,6.06445 L 14.845703,160 5.1484375,198.78711 8.7871094,204.85156 14.851562,201.21289 25.154297,160 14.851562,118.78711 Z" />
  </g>
  <g
     inkscape:groupmode="layer"
     id="layer5"
     inkscape:label="Capa 5"
     style="display:none"
     sodipodi:insensitive="true">
    <path
       id="path262"
       style="baseline-shift:baseline;display:inline;overflow:visible;opacity:1;vector-effect:none;paint-order:stroke markers fill;enable-background:accumulate;stop-color:#000000;stop-opacity:1"
       d="M 8.7871094,15.148438 5.1484375,21.212891 14.845703,60 5.1484375,98.787109 8.7871094,104.85156 14.851562,101.21289 25.154297,60 14.851562,18.787109 Z" />
  </g>
  <g
     inkscape:groupmode="layer"
     id="layer7"
     inkscape:label="Capa 7"
     style="display:none"
     sodipodi:insensitive="true">
    <path
       id="path259"
       style="baseline-shift:baseline;display:inline;overflow:visible;opacity:1;vector-effect:none;paint-order:stroke markers fill;enable-background:accumulate;stop-color:#000000;stop-opacity:1"
       d="M 9.4472656,15.03125 5.03125,20.552734 14.96875,110 5.03125,199.44727 9.4472656,204.96875 14.96875,200.55273 25.03125,110 14.96875,19.447266 Z" />
  </g>
  <g
     inkscape:groupmode="layer"
     id="layer8"
     inkscape:label="Capa 8"
     style="display:none"
     sodipodi:insensitive="true">
    <path
       id="path76"
       style="baseline-shift:baseline;display:inline;overflow:visible;opacity:1;vector-effect:none;paint-order:stroke markers fill;enable-background:accumulate;stop-color:#000000;stop-opacity:1"
       d="m 40,15 -5,5 V 155 H 10 l -5,5 5,5 h 25 v 35 l 5,5 5,-5 v -35 h 10 v 35 l 5,5 5,-5 v -35 h 10 v 35 l 5,5 5,-5 v -35 h 25 l 5,-5 -5,-5 H 85 V 20 l -5,-5 -5,5 V 155 H 65 V 20 l -5,-5 -5,5 V 155 H 45 V 20 Z" />
  </g>
  <g
     inkscape:groupmode="layer"
     id="g22"
     inkscape:label="Capa 8 copia"
     style="display:none"
     sodipodi:insensitive="true">
    <path
       id="path244"
       style="baseline-shift:baseline;display:inline;overflow:visible;opacity:1;vector-effect:none;paint-order:stroke markers fill;enable-background:accumulate;stop-color:#000000;stop-opacity:1"
       d="m 40,15 -5,5 V 125 H 10 l -5,5 5,5 h 25 v 20 H 10 l -5,5 5,5 h 25 v 35 l 5,5 5,-5 v -35 h 10 v 35 l 5,5 5,-5 v -35 h 10 v 35 l 5,5 5,-5 v -35 h 25 l 5,-5 -5,-5 H 85 v -20 h 25 l 5,-5 -5,-5 H 85 V 20 l -5,-5 -5,5 V 125 H 65 V 20 l -5,-5 -5,5 V 125 H 45 V 20 Z m 5,120 h 10 v 20 H 45 Z m 20,0 h 10 v 20 H 65 Z" />
  </g>
  <g
     inkscape:groupmode="layer"
     id="g26"
     inkscape:label="Capa 8 copia 1"
     style="display:none"
     sodipodi:insensitive="true">
    <path
       id="path235"
       style="baseline-shift:baseline;display:inline;overflow:visible;opacity:1;vector-effect:none;paint-order:stroke markers fill;enable-background:accumulate;stop-color:#000000;stop-opacity:1"
       d="m 40,15 -5,5 V 155 H 10 l -5,5 5,5 h 25 v 35 l 5,5 5,-5 v -35 h 30 v 35 l 5,5 5,-5 v -35 h 25 l 5,-5 -5,-5 H 85 V 20 l -5,-5 -5,5 V 155 H 45 V 20 Z" />
  </g>
  <g
     inkscape:groupmode="layer"
     id="g29"
     inkscape:label="Capa 8 copia 1 copia"
     style="display:none"
     sodipodi:insensitive="true">
    <path
       id="path223"
       style="baseline-shift:baseline;display:inline;overflow:visible;opacity:1;vector-effect:none;paint-order:stroke markers fill;enable-background:accumulate;stop-color:#000000;stop-opacity:1"
       d="m 40,15 -5,5 V 55 H 10 l -5,5 5,5 h 25 v 90 H 10 l -5,5 5,5 h 25 v 35 l 5,5 5,-5 v -35 h 30 v 35 l 5,5 5,-5 v -35 h 25 l 5,-5 -5,-5 H 85 V 65 h 25 l 5,-5 -5,-5 H 85 V 20 l -5,-5 -5,5 V 55 H 45 V 20 Z m 5,50 h 30 v 90 H 45 Z" />
  </g>
  <g
     inkscape:groupmode="layer"
     id="g32"
     inkscape:label="Capa 8 copia 1 copia 1"
     style="display:none"
     sodipodi:insensitive="true">
    <path
       id="path211"
       style="baseline-shift:baseline;display:inline;overflow:visible;opacity:1;vector-effect:none;paint-order:stroke markers fill;enable-background:accumulate;stop-color:#000000;stop-opacity:1"
       d="m 40,15 -5,5 V 155 H 10 l -5,5 5,5 h 25 v 35 l 5,5 5,-5 v -35 h 30 v 35 l 5,5 5,-5 v -35 h 25 l 5,-5 -5,-5 H 85 V 20 l -5,-5 -5,5 V 155 H 45 V 20 Z m 71.21289,80.148438 -6.06445,3.638671 -10.000002,40.000001 3.638671,6.06445 6.064451,-3.63867 10,-40 z" />
  </g>
  <g
     inkscape:groupmode="layer"
     id="layer9"
     inkscape:label="Capa 9"
     style="display:none"
     sodipodi:insensitive="true">
    <path
       id="path205"
       style="baseline-shift:baseline;display:inline;overflow:visible;opacity:1;vector-effect:none;paint-order:stroke markers fill;enable-background:accumulate;stop-color:#000000;stop-opacity:1"
       d="m 60,15 -5,5 V 155 H 10 l -5,5 5,5 h 45 v 35 l 5,5 5,-5 v -35 h 45 l 5,-5 -5,-5 H 65 V 20 Z" />
  </g>
  <g
     inkscape:groupmode="layer"
     id="g37"
     inkscape:label="Capa 9 copia"
     style="display:none"
     sodipodi:insensitive="true">
    <path
       id="path196"
       style="baseline-shift:baseline;display:inline;overflow:visible;opacity:1;vector-effect:none;paint-order:stroke markers fill;enable-background:accumulate;stop-color:#000000;stop-opacity:1"
       d="m 60,15 -5,5 V 55 H 10 l -5,5 5,5 h 45 v 90 H 10 l -5,5 5,5 h 45 v 35 l 5,5 5,-5 v -35 h 45 l 5,-5 -5,-5 H 65 V 65 h 45 l 5,-5 -5,-5 H 65 V 20 Z" />
  </g>
  <g
     inkscape:groupmode="layer"
     id="g39"
     inkscape:label="Capa 9 copia copia"
     style="display:none"
     sodipodi:insensitive="true">
    <path
       id="path187"
       style="baseline-shift:baseline;display:inline;overflow:visible;opacity:1;vector-effect:none;paint-order:stroke markers fill;enable-background:accumulate;stop-color:#000000;stop-opacity:1"
       d="m 60,15 -5,5 V 155 H 10 l -5,5 5,5 h 45 v 35 l 5,5 5,-5 v -35 h 45 l 5,-5 -5,-5 H 65 V 20 Z m 31.212891,80.148438 -6.064453,3.638671 -10,40.000001 3.638671,6.06445 6.064453,-3.63867 10,-40 z" />
  </g>
  <g
     inkscape:groupmode="layer"
     id="layer12"
     inkscape:label="Capa 10"
     style="display:none"
     sodipodi:insensitive="true">
    <path
       id="path184"
       style="baseline-shift:baseline;display:inline;overflow:visible;opacity:1;vector-effect:none;paint-order:stroke markers fill;enable-background:accumulate;stop-color:#000000;stop-opacity:1"
       d="m 72.236328,15.527344 -6.708984,2.236328 -20.744141,41.490234 20,110.000004 -19.255859,38.50976 2.236328,6.70899 6.708984,-2.23633 20.744141,-41.49024 -9.863281,-54.2539 30.523437,7.63086 9.271487,37.08984 6.06445,3.63867 3.63867,-6.06445 L 104.12305,115.87695 63.388672,105.69336 55.216797,60.746094 74.472656,22.236328 Z" />
  </g>
  <g
     inkscape:groupmode="layer"
     id="g45"
     inkscape:label="Capa 10 copia"
     style="display:none"
     sodipodi:insensitive="true">
    <path
       id="path172"
       style="baseline-shift:baseline;display:inline;overflow:visible;opacity:1;vector-effect:none;paint-order:stroke markers fill;enable-background:accumulate;stop-color:#000000;stop-opacity:1"
       d="m 60.980469,15.097656 -5.882813,3.921875 -10.207031,51.035157 20,90.000002 -9.792969,48.96484 3.921875,5.88281 5.882813,-3.92187 10.207031,-51.03516 -10.328125,-46.47265 22.076172,-8.83008 24.999998,-10.000002 2.78516,-6.5 -6.5,-2.785156 -25.000002,10 -20.558594,8.222658 -7.474609,-33.634768 9.792969,-48.964843 z m 31.255859,30.429688 -6.708984,2.236328 -20,40 2.236328,6.708984 6.708984,-2.236328 20,-40 z" />
  </g>
  <g
     inkscape:groupmode="layer"
     id="layer13"
     inkscape:label="Capa 11"
     style="display:none"
     sodipodi:insensitive="true">
    <path
       id="path169"
       style="baseline-shift:baseline;display:inline;overflow:visible;opacity:1;vector-effect:none;paint-order:stroke markers fill;enable-background:accumulate;stop-color:#000000;stop-opacity:1"
       d="m 80,15 -5,5 V 55 H 10 l -5,5 5,5 h 65 v 135 l 5,5 5,-5 V 65 h 25 l 5,-5 -5,-5 H 85 V 20 Z" />
  </g>
  <g
     inkscape:groupmode="layer"
     id="g50"
     inkscape:label="Capa 11 copia"
     style="display:none"
     sodipodi:insensitive="true">
    <path
       id="path157"
       style="baseline-shift:baseline;display:inline;overflow:visible;opacity:1;vector-effect:none;paint-order:stroke markers fill;enable-background:accumulate;stop-color:#000000;stop-opacity:1"
       d="m 80,15 -5,5 V 55 H 10 l -5,5 5,5 H 75 V 85 H 50 l -5,5 5,5 h 25 v 105 l 5,5 5,-5 V 95 h 25 l 5,-5 -5,-5 H 85 V 65 h 25 l 5,-5 -5,-5 H 85 V 20 Z" />
  </g>
  <g
     inkscape:groupmode="layer"
     id="g54"
     inkscape:label="Capa 11 copia copia"
     style="display:none"
     sodipodi:insensitive="true">
    <path
       id="path145"
       style="baseline-shift:baseline;display:inline;overflow:visible;opacity:1;vector-effect:none;paint-order:stroke markers fill;enable-background:accumulate;stop-color:#000000;stop-opacity:1"
       d="m 40,15 -5,5 V 55 H 10 l -5,5 5,5 H 35 V 85 H 10 l -5,5 5,5 h 25 v 60 H 10 l -5,5 5,5 h 25 v 35 l 5,5 5,-5 v -35 h 65 l 5,-5 -5,-5 H 45 V 95 h 65 l 5,-5 -5,-5 H 45 V 65 h 65 l 5,-5 -5,-5 H 45 V 20 Z" />
  </g>
  <g
     inkscape:groupmode="layer"
     id="layer15"
     inkscape:label="Capa 12"
     style="display:none"
     sodipodi:insensitive="true">
    <path
       id="path136"
       style="baseline-shift:baseline;display:inline;overflow:visible;opacity:1;vector-effect:none;paint-order:stroke markers fill;enable-background:accumulate;stop-color:#000000;stop-opacity:1"
       d="M 48.916016,15.119141 45.119141,21.083984 52.65625,55 H 10 l -5,5 5,5 h 44.878906 l 10,45 L 58.90625,136.875 14,77 7,76 l -1,7 50.048828,66.73242 -10.929687,49.1836 3.796875,5.96484 5.964843,-3.79688 9.070313,-40.8164 L 96,203 l 7,1 1,-7 -37.191406,-49.58984 8.3125,-37.41016 -10,-45 H 110 l 5,-5 -5,-5 H 62.898438 L 54.880859,18.916016 Z" />
  </g>
  <g
     inkscape:groupmode="layer"
     id="layer16"
     inkscape:label="Layer 13"
     style="display:none"
     sodipodi:insensitive="true">
    <path
       id="path127"
       style="baseline-shift:baseline;display:inline;overflow:visible;opacity:1;vector-effect:none;paint-order:stroke markers fill;enable-background:accumulate;stop-color:#000000;stop-opacity:1"
       d="M 42.236328,15.527344 35.527344,17.763672 14.410156,60 l 21.117188,42.23633 6.708984,2.23633 2.236328,-6.708988 L 25.589844,60 44.472656,22.236328 Z m 70.191402,0.101562 -6.79882,1.94336 L 5.6289062,197.57227 7.5722656,204.37109 14.371094,202.42773 114.37109,22.427734 Z M 77.763672,115.52734 75.527344,122.23633 94.410156,160 l -18.882812,37.76367 2.236328,6.70899 6.708984,-2.23633 L 105.58984,160 84.472656,117.76367 Z" />
  </g>
  <g
     inkscape:groupmode="layer"
     id="layer17"
     inkscape:label="Layer 14"
     style="display:none"
     sodipodi:insensitive="true">
    <path
       id="path118"
       style="baseline-shift:baseline;display:inline;overflow:visible;opacity:1;vector-effect:none;paint-order:stroke markers fill;enable-background:accumulate;stop-color:#000000;stop-opacity:1"
       d="m 60,15 -5,5 v 180 l 5,5 5,-5 V 20 Z m -20,70 -5,5 v 40 l 5,5 5,-5 V 90 Z m 40,0 -5,5 v 40 l 5,5 5,-5 V 90 Z" />
  </g>
  <g
     inkscape:groupmode="layer"
     id="layer18"
     inkscape:label="Layer 15"
     style="display:none"
     sodipodi:insensitive="true">
    <path
       id="path115"
       style="baseline-shift:baseline;display:inline;overflow:visible;opacity:1;vector-effect:none;paint-order:stroke markers fill;enable-background:accumulate;stop-color:#000000;stop-opacity:1"
       d="M 7.5722656,15.628906 5.6289062,22.427734 54.279297,110 5.6289062,197.57227 7.5722656,204.37109 14.371094,202.42773 60,120.29492 l 45.62891,82.13281 6.79882,1.94336 1.94336,-6.79882 L 65.720703,110 114.37109,22.427734 112.42773,15.628906 105.62891,17.572266 60,99.705078 14.371094,17.572266 Z" />
  </g>
  <g
     inkscape:groupmode="layer"
     id="layer19"
     inkscape:label="Layer 16"
     style="display:none"
     sodipodi:insensitive="true">
    <path
       id="path103"
       style="baseline-shift:baseline;display:inline;overflow:visible;opacity:1;vector-effect:none;paint-order:stroke markers fill;enable-background:accumulate;stop-color:#000000;stop-opacity:1"
       d="m 10,15 -5,5 v 180 l 5,5 5,-5 V 20 Z m 22.236328,0.527344 -6.708984,2.236328 2.236328,6.708984 79.999998,40 6.70899,-2.236328 -2.23633,-6.708984 z m 80.537112,60.3125 -6.9336,1.386718 -79.999996,119.999998 1.386718,6.9336 6.933594,-1.38672 80.000004,-120.000002 z" />
  </g>
  <g
     inkscape:groupmode="layer"
     id="layer20"
     inkscape:label="Layer 17"
     style="display:none"
     sodipodi:insensitive="true">
    <path
       id="path91"
       style="baseline-shift:baseline;display:inline;overflow:visible;opacity:1;vector-effect:none;paint-order:stroke markers fill;enable-background:accumulate;stop-color:#000000;stop-opacity:1"
       d="m 40,15 -5,5 v 180 l 5,5 5,-5 V 20 Z m 20,0 -5,5 v 80 l 5,5 5,-5 V 20 Z m 20,0 -5,5 v 180 l 5,5 5,-5 V 20 Z m -20,100 -5,5 v 80 l 5,5 5,-5 v -80 z" />
  </g>
  <g
     inkscape:groupmode="layer"
     id="layer1"
     inkscape:label="Layer 18">
    <path
       style="font-variation-settings:normal;opacity:1;vector-effect:none;fill:none;fill-opacity:1;stroke:#000000;stroke-width:10;stroke-linecap:butt;stroke-linejoin:miter;stroke-miterlimit:4;stroke-dasharray:none;stroke-dashoffset:0;stroke-opacity:1;-inkscape-stroke:none;paint-order:stroke markers fill;stop-color:#000000;stop-opacity:1;marker-start:url(#CapTriangle);marker-end:url(#marker2)"
       d="M 10,110 H 110"
       id="path1" />
  </g>
</svg>
